<svg xmlns="http://www.w3.org/2000/svg" viewBox="0 0 2619.6 1496.19"><defs><style>.cls-1{fill:#dcf4ff;}.cls-2{fill:#fe9f73;}.cls-3{fill:#f07162;}.cls-4{fill:#fbfdfc;}.cls-5{fill:#49263e;}.cls-6{fill:#f97923;}.cls-7{fill:#223749;}.cls-8{fill:#21111d;}.cls-9{opacity:0.6;}.cls-10{fill:#9bc1f9;}.cls-11{fill:#e3f2ff;}.cls-12{fill:#a51134;}.cls-13{fill:#b52a52;}.cls-14{fill:#187c77;}.cls-15{fill:#e23e3d;}.cls-16{fill:#ea5942;}.cls-17{fill:#fec786;}.cls-18{fill:#4cb7d8;}.cls-19{fill:#20111d;}.cls-20{fill:#ea283c;}.cls-21{fill:#ed2b47;}.cls-22{fill:#fff;}.cls-23{fill:#7fc6a6;}.cls-24{fill:#febac7;}.cls-25{fill:#3f9896;}.cls-26{fill:#fd7583;}</style></defs><g id="Layer_2" data-name="Layer 2"><g id="Layer_1-2" data-name="Layer 1"><path class="cls-1" d="M2521.32,1496.09H66.45c-43.83-56.75-121.46-196.75-6-376.86,112.46-175.5,19-389.81,137.67-639.47C364.43,130,658.71,152.13,750.69,182s166.33,78.31,324.84,3.73S1671.4-86.12,1961,42.53,2130,443.9,2226,540.75c124.18,125.26,199.76,84.31,341.61,297.43C2644.69,954,2641.49,1336.18,2521.32,1496.09Z"/><path d="M1374.09,734.9s31.55,20.91,7.46,86.55l-11.93-7.9,8.18-35.38Z"/><path class="cls-2" d="M1252.35,764l-10.79,98.87s-5,33.27,23.57,40.62l-10.3,44a35,35,0,0,0,19.56,40.07,90.93,90.93,0,0,0,27,7.26c33.22,3.63,54-19.47,58.08-31.71s2.38-73,2.38-73l4.22-29.32,8.67-114.42Z"/><path d="M1327.14,822.16a1.35,1.35,0,0,0,1-.28,1.41,1.41,0,0,0,.26-2c-.17-.22-17.06-21.89-36-9.69a1.42,1.42,0,0,0-.42,1.94,1.38,1.38,0,0,0,1.92.42c16.78-10.81,31.67,8.23,32.29,9A1.37,1.37,0,0,0,1327.14,822.16Z"/><path d="M1271,807.57a1.35,1.35,0,0,0,1.1-.36,1.4,1.4,0,0,0,.07-2c-.5-.55-12.46-13.35-21.59-7.06a1.4,1.4,0,0,0-.37,1.94,1.38,1.38,0,0,0,1.94.37c7.15-4.93,17.87,6.54,18,6.66A1.39,1.39,0,0,0,1271,807.57Z"/><path class="cls-2" d="M1346.82,831.47a25.06,25.06,0,1,0,27.65-22.35A25.14,25.14,0,0,0,1346.82,831.47Z"/><path class="cls-3" d="M1371.89,849.75c5.18.57,9.06-3,10.63-6.76,1.85-4.48.8-9.14-2.68-11.88-5.14-4.05-10.38-2.38-13.13-1a11.39,11.39,0,0,1,5.7-5.62c5.21-2.18,11.08.46,11.14.49a.7.7,0,0,0,.58-1.27c-.26-.12-6.47-2.93-12.24-.52-3.33,1.4-5.81,4.24-7.35,8.44l-.87,2.36,1.95-1.57c.28-.22,6.84-5.37,13.36-.24,3.61,2.85,3.47,7.3,2.25,10.25s-4.42,6.42-9.18,5.9l-.14,0a.7.7,0,0,0-.77.61.69.69,0,0,0,.61.78Z"/><path d="M1238.45,846.58s-16.36,66,27.57,73.18c62.85,10.31,72.94-25.33,79.94-54.63l7.33-61.25-.09-18h0a32.1,32.1,0,0,0-9.79,17.38c-2.91,14.56-10.48,53.82-14.32,55.17C1323.67,860.33,1249,841.21,1238.45,846.58Z"/><path class="cls-3" d="M1280.82,851.31a.7.7,0,0,0,.37-1.33l-13.37-6.13,8-32.37a.7.7,0,0,0-.51-.85.69.69,0,0,0-.84.51l-8.25,33.5,14.42,6.61A.42.42,0,0,0,1280.82,851.31Z"/><path class="cls-4" d="M1290.08,866.05c-.41-.13-27.32-3.71-27.32-3.71s2.16,11.59,12.16,12.95S1290.08,866.05,1290.08,866.05Z"/><path d="M1353.21,787,1367,777l9.54,32.52s-16.29.9-18.38,17.5,4.05,43.56-28.84,77.74,8.4-55.46,9-58.67S1353.21,787,1353.21,787Z"/><path d="M1374.09,734.9c-11.9-14.69-57.35-27.3-92.54-11v0c-39.6,14.28-31.88,53-30.75,54.26l.53-.32c-.29.84-.56,1.69-.77,2.54a41.42,41.42,0,0,1,5.61-5.48l16-9.7a78.88,78.88,0,0,1,34.82-5.94c14.38.63,26.76,2.78,36.65,7,1.78,8.78,2.14,25.86-4.66,58.65-10.37,50,18.41-8.89,29-31.49a58.29,58.29,0,0,1,2,15.37S1397.93,764.35,1374.09,734.9Z"/><path class="cls-2" d="M1249.32,791.74s1.23-20.4,2.69-24.74,48-12.17,72.4-6.08-26.56,28.1-27.11,28S1249.32,791.74,1249.32,791.74Z"/><polygon class="cls-2" points="1338.71 767.75 1365.05 748.12 1338.98 778.18 1338.71 767.75"/><path d="M1343.5,724s.37-48.48,25.92-35.14,27.72,35.94,1.94,47.89S1343.5,724,1343.5,724Z"/><path class="cls-5" d="M1308.46,829.43a.87.87,0,0,1-.36-.18c-4.4-3.61-13.24-5.1-13.33-5.11l-2.8-.46,2.52-1.3c10.65-5.49,18.5.56,18.83.82a1,1,0,0,1,.15,1.32,1,1,0,0,1-1.32.16,15.37,15.37,0,0,0-14.14-1.77c3.13.76,8.14,2.31,11.28,4.89a.94.94,0,0,1-.83,1.63Z"/><path class="cls-5" d="M1252.44,818.68a.82.82,0,0,0,.41,0c5.41-1.77,14.18.05,14.27.07l2.78.58-1.88-2.12c-7.94-9-17.44-6.18-17.84-6a.93.93,0,0,0-.62,1.17.94.94,0,0,0,1.17.62,15.41,15.41,0,0,1,13.82,3.47c-3.19-.42-8.42-.79-12.29.48a.92.92,0,0,0-.59,1.18A.91.91,0,0,0,1252.44,818.68Z"/><path class="cls-2" d="M1034.94,981s-60.67-101-66.07-116.62c-12.21-35.25-45-359.83-45-359.83L1017.5,487l58.2,266.48,72.71,159.15Z"/><path class="cls-2" d="M911.79,381.06a9.58,9.58,0,0,1,12,5.24l12.75,28.33a2.28,2.28,0,0,0,2.29,1.34h0a2.28,2.28,0,0,0,2-2.92l-13.12-44A7.55,7.55,0,0,1,934.42,359h0a12.18,12.18,0,0,1,12.25,8.26l13.38,44.85a2.27,2.27,0,0,0,2.39,1.61l.77-.07a2.28,2.28,0,0,0,2-2.48l-4.85-51.68a9.58,9.58,0,0,1,7.81-10.45,9.38,9.38,0,0,1,10.83,8.38l4.88,52a2.28,2.28,0,0,0,2.48,2.05l2.43-.23a2.26,2.26,0,0,0,2.06-2.18l1.78-48.49a9.6,9.6,0,0,1,9.11-9.35,9.37,9.37,0,0,1,9.64,9.72s1.26,74.08,2.4,85.65l20.88-17.29a9.38,9.38,0,0,1,13.2-1.24h0a9.38,9.38,0,0,1,1.24,13.2l-32.84,50.66c-2.16,2.6-8.88,3.25-14.42,2.48-54.53,9.36-62.82,11.07-77.76,12.24l-.17-1.4-3.55-58.35a140.86,140.86,0,0,0-12.14-49.3l-1.76-3.91A9.38,9.38,0,0,1,911.79,381.06Z"/><path class="cls-2" d="M1587.76,1043.25s78.54-87.83,86.78-102.14c18.61-32.34,111.57-344.39,111.57-344.39l-94.49-25L1590.43,812.11l-101.3,142.67Z"/><path class="cls-5" d="M1658.17,989.12l-1.39,1.26c-14.67,13.29-141.14,128.24-156.89,154-.16.25-.3.5-.42.72s-.36.64-.51.93c-1,2-1.83,7.38-2.6,15.59-1.81,19.17-3.13,53.68-4.08,96v.14c-.87,38.21-1.44,82.76-1.81,128.1v.28c-.3,37.16-.46,74.83-.53,110H1019.79c6.32-61.31,14-136.77,20.88-206.37,3.53-35.71,6.84-69.88,9.64-99.81,2.76-29.55,5-55,6.49-73.68,1.44-18.18,2.12-30,1.81-33.09-2.24-21.65-73.41-152.49-82.28-168.73-.57-1.08-.9-1.65-.9-1.65q7.11-5.07,13.85-9.66c49.11-33.47,100.26-59.1,122.87-69.86,7.6-3.63,12-5.56,12-5.56s26.53,43.34,47.33,70.21c16.52,21.35,33.35,41.47,40.45,44.83,2.2,1,7.94,2.19,16.21,3.34,7.12,1,16.13,2,26.36,3.07l4.74.47c29.75,2.91,68.34,5.77,101.36,8h0l5.78.39c12.17.83,23.42,1.57,33,2.17h0c18.71,1.19,30.94,1.9,30.94,1.9l102.44-93.57a124.58,124.58,0,0,1,13.65,5.59c15.12,7.18,29.28,17.25,42.06,28.49l.68.6a291.79,291.79,0,0,1,24.17,24.19c.23.24.43.47.64.72a394.79,394.79,0,0,1,34.68,45.53C1654.81,983.08,1658.17,989.12,1658.17,989.12Z"/><path class="cls-2" d="M1399.36,960.2s-49.35,33.21-92.77,29-78.48-43.14-78.48-43.14Z"/><path d="M1084.52,1007.29c-.18.33-18,34.67-31.8,177-.17,1.71-.34,3.45-.51,5.21-2.81,28.8-6.22,63.1-9.87,99.62-6.85,68.51-14.58,144.78-20.91,206.95h-3.77c6.29-61.72,14-137.37,20.79-205.58,3.66-36.66,7.07-71.17,9.91-100.18.21-2.16.41-4.28.62-6.37,2.54-26,5.18-48.47,7.82-67.73,11.94-86.94,23.82-109.62,24.42-110.73a1.9,1.9,0,0,1,2.56-.74A1.86,1.86,0,0,1,1084.52,1007.29Z"/><path d="M1489.22,1386.19h.17a1.87,1.87,0,0,0,1.89-1.86c.41-68.56,8.39-236.44,8.47-238.13a1.83,1.83,0,0,0-1.79-2,1.88,1.88,0,0,0-2,1.78c-.08,1.69-8,169.65-8.47,238.29A1.87,1.87,0,0,0,1489.22,1386.19Z"/><path d="M1658,991a1.89,1.89,0,0,0,1.08-.23,1.87,1.87,0,0,0,.74-2.54c-59.61-108.19-124-121-126.72-121.52l-.91-.17-102.54,93.64-61.29-3.88a1.87,1.87,0,0,0-2,1.75,1.85,1.85,0,0,0,1.75,2l62.88,4,.59-.53,101.72-92.9c8,2,68.29,19.75,123.23,119.45A1.87,1.87,0,0,0,1658,991Z"/><path class="cls-2" d="M1768.45,503.27l.51-2.65c4.63-3.31,3.67,30.9,14.49,23,7.2,8.69,22.8-26.23,24-26.95l1.33,2.1a2.3,2.3,0,0,0,1.44,1c6.24,9.67-.83,36.78,6.24,46.79,5,7.11.47,7.52-2.31,15.45-1.61,4.59,7.37,7.33,1,11.66l-39.9,32.53c-8.36-12.75-59.14-65.46-58.37-68.81Z"/><path class="cls-6" d="M1714.66,485.73c3.4-12.69-19-68.9-19-68.9l-8.54-25.54-3.47,1.57-2.13-4.74,17.86-8,17.86-8.05,2.13,4.73-3.47,1.57,13.47,23.32s27.28,54,39,59.86S1787,479.12,1787,479.12l54.87,121.82c2.09,8-5.58,12.23-5.58,12.23l-26.51,11.94-26.51,11.94s-8.24,3-12.85-3.93L1715.55,511.3S1711.27,498.42,1714.66,485.73Z"/><rect class="cls-7" x="1733.93" y="498.13" width="78.37" height="91.1" transform="translate(3613.08 311.24) rotate(155.75)"/><path class="cls-8" d="M1696.82,388l23.83-10.74-2.52-5.58a.93.93,0,0,0-1.7.76l1.75,3.89-22.13,10a.94.94,0,1,0,.77,1.71Z"/><path class="cls-8" d="M1840.43,597.45h0a.93.93,0,0,0,.46-1.24L1791,485.72a46.12,46.12,0,0,0-13.7-19.35c-2.72-2.24-5-4-7.06-5.54-5.26-4-8.73-6.64-12.8-12.69-4.55-6.76-16.68-27.25-20.28-34.25s-20.24-35.74-20.41-36a.94.94,0,0,0-1.28-.34,1,1,0,0,0-.34,1.28c.17.28,16.73,28.89,20.37,35.95s15.71,27.47,20.39,34.44c4.24,6.3,7.81,9,13.22,13.13,2,1.54,4.31,3.28,7,5.49a45,45,0,0,1,13.12,18.54l0,.09L1839.19,597A.94.94,0,0,0,1840.43,597.45Z"/><g class="cls-9"><circle class="cls-10" cx="1774.37" cy="543.12" r="28.52" transform="translate(240.41 1587.3) rotate(-51.26)"/></g><path class="cls-8" d="M1772.73,475.79a1,1,0,0,0,.42-.37.93.93,0,0,0-.31-1.28l-12-7.34a.93.93,0,1,0-1,1.59l12,7.34A.93.93,0,0,0,1772.73,475.79Z"/><path class="cls-8" d="M1773.45,483.44a1,1,0,0,0,.41-.37.93.93,0,0,0-.31-1.28l-12-7.34a.93.93,0,1,0-1,1.59l12,7.34A1,1,0,0,0,1773.45,483.44Z"/><path class="cls-2" d="M1824.67,507.45c2.17,6-.62,10.45-1.61,10.84l-30.46,12.1c-3.69,1.46-8.31-1.11-10.41-6.12-2.29-5.49-.79-11.41,3.19-13l30.33-12.05S1822.51,501.46,1824.67,507.45Z"/><path class="cls-2" d="M1831.13,524.56c2.25,6,1.1,11.78.12,12.2l-32.51,13.91c-3.65,1.56-8.3-.91-10.46-5.88-2.37-5.45-1-11.42,3-13.11l33.34-14.26S1828.89,518.6,1831.13,524.56Z"/><path class="cls-2" d="M1835.14,544.72c2.14,5.54,1.11,11,.21,11.39l-30.1,13.45c-3.38,1.51-7.72-.73-9.77-5.34-2.25-5.05-1-10.65,2.66-12.28L1829,538.15S1833,539.19,1835.14,544.72Z"/><path class="cls-3" d="M1826.27,518.85a1.94,1.94,0,0,0,.38-2.18c-.36-1-1.24-1.57-2-1.28l-32.75,13.2c-3.09,1.22-6.82-1-8.49-5a10.41,10.41,0,0,1-.62-6.46,5.58,5.58,0,0,1,3.21-4.09l30-11.92a1.81,1.81,0,0,0,.65-2.33c-.37-1-1.24-1.57-2-1.28l-30,11.92a8.3,8.3,0,0,0-4.69,6,15.22,15.22,0,0,0,.9,9.43c2.45,5.86,7.87,9.07,12.33,7.29L1826,519A.93.93,0,0,0,1826.27,518.85Z"/><path class="cls-2" d="M1815,487.47c2.34,5.92,1,11.77,0,12.18l-32.59,13.58c-3.59,1.5-8.15-.82-10.35-5.66-2.53-5.54-1.1-11.68,2.92-13.35l30.42-12.68C1808.84,480.14,1813.65,484,1815,487.47Z"/><path class="cls-3" d="M1815.91,501.14a2,2,0,0,0,.36-2.19c-.38-1-1.26-1.55-2-1.25l-32.55,13.75c-3.06,1.28-6.81-.84-8.51-4.82a10.44,10.44,0,0,1-.68-6.46,5.6,5.6,0,0,1,3.16-4.15l29.83-12.44a1.81,1.81,0,0,0,.62-2.34c-.37-1-1.25-1.55-2-1.25l-29.84,12.43a8.35,8.35,0,0,0-4.62,6.08,15.29,15.29,0,0,0,1,9.44c2.5,5.83,7.93,8.95,12.36,7.11l32.55-13.75A1.13,1.13,0,0,0,1815.91,501.14Z"/><path class="cls-3" d="M1830.75,537.86a2,2,0,0,0,.36-2.23c-.39-1-1.27-1.53-2-1.21l-31.45,14.17c-3.08,1.31-6.44-.52-8.16-4.47a10.49,10.49,0,0,1-.71-6.45,5.64,5.64,0,0,1,3.13-4.19l33.34-14.27a1.8,1.8,0,0,0,.61-2.35c-.37-1-1.26-1.54-2-1.24l-33.34,14.27A8.39,8.39,0,0,0,1786,536a15.27,15.27,0,0,0,1,9.43c2.52,5.8,7.57,8.62,12,6.72L1830.53,538A1.64,1.64,0,0,0,1830.75,537.86Z"/><path class="cls-3" d="M1835.54,556.63a2,2,0,0,0,.36-2.22c-.38-1-1.27-1.53-2-1.22l-30.09,13.45c-2.79,1.25-6.23-.61-7.85-4.23a9.69,9.69,0,0,1-.7-5.92,5.25,5.25,0,0,1,2.82-3.89L1829,538.81a1.83,1.83,0,0,0,.58-2.36c-.38-1-1.27-1.54-2-1.22L1796.71,549a8,8,0,0,0-4.26,5.85,14.56,14.56,0,0,0,1.07,8.9c2.42,5.46,7.57,8.29,11.7,6.44l30.1-13.45A1,1,0,0,0,1835.54,556.63Z"/><path class="cls-2" d="M1720.9,523.17c-2.35,2.51-26.1,9.51-35,61.66-4.06,23.75,56.27,39.82,56.27,39.82l19.79-10.3Z"/><path class="cls-2" d="M1711.37,564.68c.9,6.57,6.62.66,7.72.53l35.59-10.84c4-.47,7-4.91,6.52-10.42-.54-6.32-5-11.17-9.48-10.63l-34.08,4C1713.85,537.77,1710.85,560.86,1711.37,564.68Z"/><path class="cls-3" d="M1719.36,566.44a2,2,0,0,1-1.43-1.81c-.17-1.09.34-2,1.15-2.14l35.34-10.1c3.44-.41,5.76-4.24,5.28-8.73a10.94,10.94,0,0,0-2.68-6.21,5.87,5.87,0,0,0-5-2.16l-33.44,3.93c-.8.08-1.59-.71-1.75-1.8s.34-2.06,1.14-2.15l33.44-3.93a8.71,8.71,0,0,1,7.3,3.16,16,16,0,0,1,3.91,9.08c.71,6.57-2.63,12.18-7.6,12.76l-35.35,10.11A1.71,1.71,0,0,1,1719.36,566.44Z"/><path class="cls-2" d="M1433.15,1220.13l-1.67-1.91c-5.34-.49-16-2.17-28.5-3.43-1.71,10.48-3.3,18.53-4.59,18.5l-.09,2.34a2.19,2.19,0,0,1-.68,1.51c-.49,10.81-.78,24.56-1.77,36-.7,8.17-4,14.88,2,20,3.48,3,23.6,5.8,30.82,6.29l47.85,7.46c.74-14.33,11-76.45,8.82-78.81Z"/><path class="cls-2" d="M1850.25,1204.82s-71.73,94.74-96.64,111.53-278.51-9.56-278.51-9.56l6.44-78.43,209.68-12.06,69.85-91.16Z"/><path class="cls-3" d="M1688.29,1215.2a3,3,0,0,1,5.72-1.06l21.39,42.93a3,3,0,0,1-5.42,2.7l-21.39-42.93A3,3,0,0,1,1688.29,1215.2Z"/><path class="cls-11" d="M1474.35,1162.74l-2.63-61-96.9,4.18,2.63,61c1.06,24.62,21.15,44,45.82,45.26l5,101.06-38.46,16.86,87.57-3.78-39.78-13.49-5-101C1457.07,1208.42,1475.42,1187.36,1474.35,1162.74Z"/><path class="cls-12" d="M1380.57,1163.19c0,.53,0,1.07,0,1.61a45.27,45.27,0,1,0,90.45-3.9c0-.54-.07-1.07-.11-1.61Z"/><path class="cls-13" d="M1470.93,1159.29c.06,1.49-20.11,3.56-45.07,4.64s-45.23.74-45.29-.74,20.11-3.57,45.06-4.64S1470.86,1157.8,1470.93,1159.29Z"/><path class="cls-2" d="M1389.56,1241c-1,5.92,2.39,9.55,3.37,9.74l30.26,5.9c3.67.71,7.5-2.47,8.56-7.47,1.17-5.47-1.24-10.68-5.2-11.45l-30.13-5.87S1390.52,1235.06,1389.56,1241Z"/><path class="cls-2" d="M1386.55,1257.92c-1,5.9,1,11.08,2,11.3l32.47,7.22c3.65.81,7.52-2.28,8.66-7.26,1.24-5.45-1.1-10.72-5-11.6l-33.31-7.4S1387.6,1252,1386.55,1257.92Z"/><path class="cls-2" d="M1386.35,1277.25c-1,5.49.88,10.35,1.78,10.57l30.16,7.21c3.39.81,7-2,8.11-6.63,1.2-5.06-.93-10-4.59-10.89l-30.93-7.4S1387.37,1271.77,1386.35,1277.25Z"/><path class="cls-3" d="M1390.06,1251.79a1.83,1.83,0,0,1-.73-1.94c.16-1,.88-1.67,1.59-1.53l32.57,6.52c3.07.59,6.14-2.06,7-6a9.77,9.77,0,0,0-.54-6.07,5.26,5.26,0,0,0-3.68-3.23l-29.83-5.82a1.69,1.69,0,0,1-1-2c.16-1,.88-1.67,1.59-1.53l29.83,5.81a7.8,7.8,0,0,1,5.38,4.73,14.34,14.34,0,0,1,.8,8.87c-1.25,5.85-5.7,9.75-10.13,8.88l-32.58-6.51A.82.82,0,0,1,1390.06,1251.79Z"/><path class="cls-2" d="M1395,1220.82c-1.14,5.89,1.09,11.07,2.06,11.28l32.49,6.9c3.58.76,7.4-2.18,8.59-7,1.37-5.56-1-11-5-11.84l-30.32-6.44C1399.46,1213,1395.69,1217.41,1395,1220.82Z"/><path class="cls-3" d="M1396.57,1233.62a1.86,1.86,0,0,1-.71-2c.17-1,.89-1.65,1.6-1.5l32.48,7.07c3,.65,6.15-2,7-5.94a9.86,9.86,0,0,0-.5-6.09,5.3,5.3,0,0,0-3.64-3.29l-29.74-6.32a1.7,1.7,0,0,1-1-2c.17-1,.88-1.66,1.6-1.51l29.74,6.32a7.88,7.88,0,0,1,5.33,4.82,14.37,14.37,0,0,1,.72,8.9c-1.3,5.82-5.78,9.66-10.2,8.72l-32.48-7.07A.82.82,0,0,1,1396.57,1233.62Z"/><path class="cls-3" d="M1389.22,1270.15a1.85,1.85,0,0,1-.72-2c.18-1,.91-1.63,1.62-1.46l31.54,7.63c3.07.69,5.86-1.59,6.76-5.54a9.86,9.86,0,0,0-.46-6.09,5.34,5.34,0,0,0-3.62-3.33L1391,1252a1.7,1.7,0,0,1-1-2.07c.17-1,.89-1.65,1.6-1.49l33.3,7.4a7.93,7.93,0,0,1,5.31,4.88,14.46,14.46,0,0,1,.67,8.9c-1.32,5.8-5.51,9.29-10,8.3l-31.55-7.65Z"/><path class="cls-3" d="M1388,1288.33a1.84,1.84,0,0,1-.71-2c.18-1,.91-1.64,1.61-1.47l30.16,7.22c2.8.67,5.66-1.65,6.52-5.28a9.11,9.11,0,0,0-.37-5.59,4.93,4.93,0,0,0-3.29-3.11l-30.93-7.4a1.72,1.72,0,0,1-1-2.08c.18-1,.91-1.64,1.62-1.46l30.93,7.39a7.56,7.56,0,0,1,4.95,4.68,13.6,13.6,0,0,1,.56,8.41c-1.3,5.47-5.56,9-9.7,8l-30.16-7.22Z"/><path class="cls-2" d="M1466.47,1239.29c.76,6.2-1.93,11.42-3,11.57l-34.26,4.82c-3.77.53-7.53-2.8-8.42-7.93-1-5.87,1.85-11.34,6.08-11.94l32-4.5C1462.43,1230.81,1466,1235.7,1466.47,1239.29Z"/><path class="cls-3" d="M1464.27,1258.22a1.94,1.94,0,0,0,.87-2c-.1-1-.8-1.78-1.55-1.67l-34.58-.75c-3.22.46-6.25-2.48-6.88-6.68a10.23,10.23,0,0,1,.95-6.29,5.53,5.53,0,0,1,4-3.15l31.36-4.42a1.77,1.77,0,0,0,1.17-2.06c-.11-1-.8-1.79-1.55-1.68l-31.36,4.41a8.2,8.2,0,0,0-5.89,4.62,15,15,0,0,0-1.39,9.2c.92,6.15,5.3,10.45,10,9.8l34.58.74A1,1,0,0,0,1464.27,1258.22Z"/><path class="cls-14" d="M2210.82,1218.09c-25.22,39.44-123.88,74.87-123.88,74.87l-10.3-24.39-1.2-2.86c1,13.54,1.5,152.14,1.69,230.38H1709.06c15.18-85.42,32.88-196.1,44-267.09l0-.07c6.67-42.55,11-70.82,11-70.82s31.11-201.51,51.32-203c29.41-2.16,62.22-1.67,105.41,3.09l143.84,35.37c13.52,2.94,37.29,18.52,52,37.76q1.88,2.46,3.54,5C2130.57,1052.14,2210.82,1218.09,2210.82,1218.09Z"/><path class="cls-3" d="M2213.79,1325.93a3.06,3.06,0,0,0,1.37-.78l34-33.88a3,3,0,1,0-4.28-4.28l-33.95,33.87a3,3,0,0,0,2.91,5.07Z"/><path d="M2087.4,1294.71l.19-.07c112.86-43.69,124.52-74.67,125-76l.24-.72-.33-.67L2126.08,1043c-.2-.37-18.55-35.11-57.66-50.24a1.82,1.82,0,1,0-1.31,3.39c37.79,14.62,55.55,48.16,55.73,48.5l86,173.5c-2.33,4.56-20.66,33.69-122.54,73.14a1.82,1.82,0,0,0,1.12,3.45Z"/><path d="M2023.17,1019a1.85,1.85,0,0,0,.75-.41,1.82,1.82,0,0,0,.13-2.56l-13.91-15.48a1.82,1.82,0,0,0-2.7,2.43l13.91,15.48A1.83,1.83,0,0,0,2023.17,1019Z"/><path d="M2033.45,1021.47a1.9,1.9,0,0,0,.69-.36,1.81,1.81,0,0,0,.25-2.56l-13.75-16.69a1.81,1.81,0,1,0-2.8,2.31l13.75,16.69A1.81,1.81,0,0,0,2033.45,1021.47Z"/><path d="M1897.41,1032.42a1.83,1.83,0,0,0,1.32-1.41,1.8,1.8,0,0,0-1.42-2.13c-35.23-7-32.32-56.52-32.29-57a1.81,1.81,0,0,0-3.62-.25c0,.54-3.16,53.18,35.2,60.83A1.84,1.84,0,0,0,1897.41,1032.42Z"/><path class="cls-2" d="M1886.46,813.83l-8.61,89.76s-4,28.74,20.94,34.77l-8.41,38a30.19,30.19,0,0,0,17.45,34.33,79.43,79.43,0,0,0,23.49,6c28.85,2.76,46.56-17.38,50-28s1.18-63,1.18-63l3.32-25.32,6.15-98.75Z"/><path class="cls-3" d="M1959.67,919.46s-6.32,48.13-67.08,47l6.2-28.06S1937.15,950,1959.67,919.46Z"/><path d="M1951.61,867.59a1.18,1.18,0,0,0,.87-.26,1.2,1.2,0,0,0,.19-1.69c-.15-.19-15.06-18.69-31.34-8a1.21,1.21,0,1,0,1.33,2c14.42-9.5,27.57,6.75,28.12,7.45A1.18,1.18,0,0,0,1951.61,867.59Z"/><path class="cls-15" d="M1994.26,859l-26.47,2.91-5.16,4.41s6.42-43.29,12.13-51.37S1994.26,859,1994.26,859Z"/><path d="M1902.74,855.63a1.23,1.23,0,0,0,1-.33,1.21,1.21,0,0,0,0-1.71c-.44-.47-11-11.37-18.82-5.85a1.21,1.21,0,1,0,1.39,2c6.15-4.32,15.59,5.45,15.68,5.55A1.22,1.22,0,0,0,1902.74,855.63Z"/><path d="M1926.83,870.12a3.63,3.63,0,1,0,4-3.26A3.62,3.62,0,0,0,1926.83,870.12Z"/><path d="M1888.84,862.84a3.62,3.62,0,1,0,4-3.26A3.62,3.62,0,0,0,1888.84,862.84Z"/><circle class="cls-2" cx="1978.38" cy="873.8" r="21.74" transform="translate(41.24 1835.56) rotate(-50.23)"/><path class="cls-3" d="M1981,886.17a9.06,9.06,0,0,0,9.13-5.94c1.56-3.88.59-7.89-2.46-10.22a10.22,10.22,0,0,0-11.4-.69,9.82,9.82,0,0,1,4.87-4.91c4.49-1.93,9.62.28,9.67.3a.61.61,0,0,0,.8-.3.62.62,0,0,0-.31-.8c-.23-.1-5.65-2.45-10.62-.31-2.88,1.24-5,3.71-6.28,7.36l-.73,2,1.68-1.38c.24-.19,5.86-4.7,11.58-.35,3.17,2.42,3.1,6.26,2.08,8.81a7.79,7.79,0,0,1-7.89,5.19H1981a.59.59,0,0,0-.65.53.61.61,0,0,0,.53.67Z"/><path class="cls-3" d="M1911.78,893.23a.61.61,0,0,0,.61-.36.62.62,0,0,0-.31-.8l-11.67-5.14,6.52-28a.6.6,0,1,0-1.17-.28l-6.76,29,12.59,5.54A.59.59,0,0,0,1911.78,893.23Z"/><path class="cls-4" d="M1920,905.83c-.37-.1-23.75-2.9-23.75-2.9s2,10,10.7,11S1920,905.83,1920,905.83Z"/><path class="cls-15" d="M1994.26,859s11.34-41.44,0-58.39S1911.4,749,1901.67,756s-1.67,17.39-1.67,17.39-28.82-12.39-38.08,13.33,53.62,43.07,92.95,34.39C1954.87,821.14,1979.39,830.91,1994.26,859Z"/><path class="cls-5" d="M2144.23,858.27s-18.61-33.57,18.7-66.44,48.29,16.27,64.18,19.5,43.38-4.85,56.31,23.17,8.94,49.76,25.64,52.85,73.81,39.87,64.65,95.36-62.28,57-62.28,57S2097.62,1088,2079,1035.17s6.47-99.61,31.27-120.08C2125.51,902.51,2157.25,890.45,2144.23,858.27Z"/><path class="cls-2" d="M2167.16,881.57s-11.22,75.33,1.44,92c0,0,6.2,8.89,21,9.16v47.14h66.52V875.25Z"/><path class="cls-3" d="M2188.89,940.72a.62.62,0,0,0,.6-.48.61.61,0,0,0-.47-.72c-3.9-.84-6.36-5.64-7.07-7.21,5.54-3,8.92-6.81,10.05-11.45,1.84-7.56-2.95-14.39-3.15-14.68a.62.62,0,0,0-.85-.14.61.61,0,0,0-.14.84c0,.07,4.68,6.69,3,13.7-1.08,4.42-4.42,8.09-9.93,10.91l-.48.25.2.51c.11.3,2.87,7.32,8.16,8.46Z"/><path class="cls-3" d="M2189.61,1001.72v-19s32.06-1.88,51.72-14.27C2241.33,968.49,2214.64,994.15,2189.61,1001.72Z"/><path d="M2226,908.77a1.19,1.19,0,0,0,.84-.34,1.21,1.21,0,0,0,0-1.71c-.16-.16-15.69-16.05-29.9-4.61a1.21,1.21,0,0,0,1.52,1.89c12.47-10,26.06,3.8,26.63,4.4A1.23,1.23,0,0,0,2226,908.77Z"/><path d="M2183.9,906.12a1.21,1.21,0,0,0,.8-2.13c-.46-.39-11.25-9.62-18.09-3.75a1.21,1.21,0,1,0,1.58,1.84c5.26-4.51,14.82,3.66,14.92,3.75A1.24,1.24,0,0,0,2183.9,906.12Z"/><path class="cls-5" d="M2170,915.52a3.38,3.38,0,1,0,3.38-3.38A3.39,3.39,0,0,0,2170,915.52Z"/><path class="cls-5" d="M2199.93,915.52a3.38,3.38,0,1,0,3.38-3.38A3.38,3.38,0,0,0,2199.93,915.52Z"/><circle class="cls-2" cx="2261.8" cy="929.97" r="18.93"/><path class="cls-3" d="M2263.2,941.65a8,8,0,0,0,7.5-6,7.47,7.47,0,0,0-3-8.74,8.93,8.93,0,0,0-9.82.22,8.42,8.42,0,0,1,3.71-4.4c3.7-2,8.28-.54,8.33-.53a.6.6,0,0,0,.76-.38.6.6,0,0,0-.38-.77c-.21-.07-5.13-1.67-9.3.62-2.41,1.32-4,3.66-4.87,6.95l-.52,2.11,1.54-1.54c.19-.18,4.65-4.52,9.91-1.25a6.36,6.36,0,0,1,2.5,7.37,6.69,6.69,0,0,1-6.43,5.09.63.63,0,0,0-.62.6.61.61,0,0,0,.6.62Z"/><path class="cls-2" d="M2167.16,881.57s5.76-29.13,44.74-32.34,44.23,26,44.23,26l-44.48,9-41.62-2.9Z"/><path class="cls-5" d="M2167.16,856.89s24.25,23.74,55.71,18.36c0,0,10.5,38.43,33.26,36.65s10.38-55,10.38-55-42.56-17.33-45.26-17.33-47.84-2.7-47.84-2.7Z"/><path class="cls-16" d="M2198.74,926.29a.75.75,0,0,0,0-1.5.75.75,0,0,0,0,1.5Z"/><path class="cls-16" d="M2203.31,929a.75.75,0,0,0,0-1.5.75.75,0,0,0,0,1.5Z"/><path class="cls-16" d="M2211.59,923.58a.75.75,0,0,0,0-1.5.75.75,0,0,0,0,1.5Z"/><path class="cls-16" d="M2218.68,929a.75.75,0,0,0,0-1.5.75.75,0,0,0,0,1.5Z"/><path class="cls-16" d="M2226.12,921.72a.75.75,0,0,0,0-1.5.75.75,0,0,0,0,1.5Z"/><path class="cls-16" d="M2228.82,932.54a.75.75,0,0,0,0-1.5.75.75,0,0,0,0,1.5Z"/><path class="cls-16" d="M2183.7,921.89a.75.75,0,0,0,0-1.5.75.75,0,0,0,0,1.5Z"/><path class="cls-16" d="M2178.13,928a.75.75,0,0,0,0-1.5.75.75,0,0,0,0,1.5Z"/><path class="cls-16" d="M2171.37,925.27a.75.75,0,0,0,0-1.5.75.75,0,0,0,0,1.5Z"/><path class="cls-16" d="M2170.86,935.92a.75.75,0,0,0,0-1.5.75.75,0,0,0,0,1.5Z"/><path class="cls-16" d="M2165.79,929.67a.75.75,0,0,0,0-1.5.75.75,0,0,0,0,1.5Z"/><path class="cls-16" d="M2167,920.37a.75.75,0,0,0,0-1.5.75.75,0,0,0,0,1.5Z"/><path class="cls-16" d="M2208.71,933.72a.75.75,0,0,0,0-1.5.75.75,0,0,0,0,1.5Z"/><path class="cls-2" d="M2039.57,1188.13l-16.81,307s106.91-74.89,112.09-84.56,12.54-111.93,13.16-145-33.77-98.33-33.77-98.33Z"/><path class="cls-17" d="M2328,1326c22,41.78,51.68,96.18,81.6,170H2009c26.36-112.43,63.42-158.63,63.42-173.38-7.35-112.33-5-111.9-14.37-115.37-25.74-9.49-6.65-1.11-34-20.67l8-37.4c17.39-67.26,35.69-99.08,38.91-102.36,11.6-11.8,67.05-18.69,82.94-20.6.72-.46,72.46-1.13,82.74-.11,54-1.21,100.6-3,150.86,35.41,22.54,27.21,62.2,75,102,130.65-26.24,24.69-74.9,55-121.21,69.83-2.69.89-.74,3.18-10-17.1C2357.63,1246.7,2330.44,1319.39,2328,1326Z"/><path class="cls-8" d="M2354.76,1071.14a1.1,1.1,0,0,1-.89-.45c-10.76-14.33-28.32-20.16-28.5-20.22a1.11,1.11,0,0,1,.69-2.11c.74.24,18.4,6.08,29.59,21a1.11,1.11,0,0,1-.23,1.56A1.09,1.09,0,0,1,2354.76,1071.14Z"/><path class="cls-8" d="M2352.66,1081.44a1.11,1.11,0,0,1-.89-.44c-10.75-14.34-28.32-20.16-28.5-20.22a1.11,1.11,0,0,1,.69-2.12c.74.24,18.4,6.09,29.59,21a1.11,1.11,0,0,1-.89,1.78Z"/><path d="M2411.24,1496.09h-4.31c-14.72-37.52-28.94-69.27-41.24-94.75q-3.77-7.81-7.27-14.82c-19.13-38.23-32.12-58.74-32.5-59.32l-.54-.85,3.35-9h0l9.75-26,18-48.16,1.56-4.16,9.11,21.21s.05,0,.07,0c3-1,5.89-1.94,8.74-2.94l.68,1.87.7,1.91q-5.16,1.8-10.55,3.52l-.06,0-.2.06-1.65.52-.61-1.47a2.39,2.39,0,0,1-.13-.28l-5.85-13.61L2344,1288.08l-9.54,25.48-4.6,12.32c2.68,4.32,15,24.58,32.31,59.15,2.31,4.64,4.73,9.55,7.22,14.7C2381.86,1425.61,2396.3,1457.89,2411.24,1496.09Z"/><path d="M2492.18,1193.11l-1.14,1.19a158.07,158.07,0,0,1-12,10.72l-3,2.39c-.53-1.29-1.07-2.58-1.61-3.84,6.43-5.17,10.63-9.07,12.52-10.9-9.38-13.38-84-119.17-116-140.94-11.42-7.78-25.51-13-39.18-16.48a244.87,244.87,0,0,0-39.43-6.4c-2.63-.21-4.94-.36-6.84-.47h-.25c-3.54-.18-5.65-.21-5.75-.21a1.7,1.7,0,0,1-.87-.21,1.94,1.94,0,0,1-1.12-1.8,2,2,0,0,1,2-2h0c1.68,0,29.71.29,58.33,8.52,12.38,3.56,24.86,8.6,35.37,15.75,34.57,23.55,114.62,138.46,118,143.36Z"/><path d="M2366,1264.72a1.94,1.94,0,0,0,.71-.13,2,2,0,0,0,1.17-2.59l-33.73-89.17a2,2,0,1,0-3.76,1.42l33.73,89.17A2,2,0,0,0,2366,1264.72Z"/><path d="M2074.09,1329.69l-.35.56c-.28.41-24,38.29-48,110.93v0q-4.26,12.84-8.47,27.13c-2.54,8.66-5.12,17.91-7.67,27.74h-4.15q4-15.49,8-29.06c4.33-14.71,8.74-28.27,13.09-40.7,21-59.79,40.6-93,43.46-97.66l-8.49-115c-.74-1.15-1.46-2.3-2.14-3.44-.59-1-1.15-1.94-1.69-2.9-.33-.59-.65-1.18-1-1.77h0a90,90,0,0,1-7.86-20c-11.58-45.21,20.71-78.53,21.11-78.93a2,2,0,0,1,2.86,2.83c-1.54,1.54-31.34,32.39-20.2,75a89.54,89.54,0,0,0,9.68,22.85v0a.75.75,0,0,0,.1.17h0c.86,1.46,1.77,2.92,2.74,4.4l.29.43Z"/><path d="M2097.17,1213.62h110.88a2,2,0,0,0,0-4H2097.17a2,2,0,0,0,0,4Z"/><path d="M2113.2,1233h73.48a2,2,0,1,0,0-4H2113.2a2,2,0,1,0,0,4Z"/><path d="M2060.6,1210.45a2,2,0,0,0,.31-4c-18.64-2.87-32.09-17.84-35-21.37.81-3.14,1.86-7.61,3.17-13.12,8.57-36.23,28.66-121.06,50-128.56,25.43-8.94,68.08-14.25,68.51-14.31a2,2,0,0,0,1.75-2.24,2,2,0,0,0-2.24-1.75c-.43.06-43.52,5.42-69.35,14.51-23.37,8.23-43.08,91.44-52.54,131.42-1.44,6.09-2.58,10.9-3.41,14l-.25,1,.6.78c.62.82,15.58,20.16,38.22,23.64Z"/><path class="cls-4" d="M2182.91,949.11c.34-.14,22.65-4.63,22.65-4.63s-1.17,9.76-9.46,11.45S2182.91,949.11,2182.91,949.11Z"/><path d="M2476.06,1207.41c-17.17,13.7-49,35.47-94.19,52-1.49.55-3,1.1-4.52,1.64l-1.38-3.78c48-16.85,81.26-39.85,98.48-53.7C2475,1204.83,2475.53,1206.12,2476.06,1207.41Z"/><path class="cls-2" d="M2496.5,1290c-31.8,44.8-84.2,75-134.34,95.08l-3.74,1.49c-68.07,26.57-130.9,34.4-130.9,34.4L2221,1361l117.5-69.66,5.51-3.27L2379.5,1267l-2.15-6c1.53-.54,3-1.09,4.52-1.64,45.23-16.53,77-38.3,94.19-52C2489.49,1239.36,2505.17,1277.73,2496.5,1290Z"/><path class="cls-3" d="M2426.86,1279.71a3,3,0,0,0,.16-.45,2.89,2.89,0,0,0-2.07-3.51l-44.16-11.37a2.88,2.88,0,1,0-1.44,5.57l44.16,11.38A2.89,2.89,0,0,0,2426.86,1279.71Z"/><path class="cls-11" d="M2215.88,1335.3l3.35-61-96.85-5.31-3.35,61c-1.35,24.62,16.75,45.89,41.18,49.53l-4.11,74.91-39.93,13,39.1,2.15,4.66.25,4.67.26,39.1,2.14-38.27-17.31,4.11-74.91C2194.22,1379.07,2214.53,1359.91,2215.88,1335.3Z"/><path class="cls-12" d="M2122.5,1326.58c-.05.53-.1,1.07-.13,1.61a45.26,45.26,0,0,0,90.39,5c0-.55,0-1.08,0-1.62Z"/><path class="cls-13" d="M2212.81,1331.53c-.08,1.48-20.36,1.58-45.3.21s-45.09-3.68-45-5.16,20.36-1.58,45.3-.22S2212.89,1330,2212.81,1331.53Z"/><path class="cls-2" d="M2143.4,1380.8c-6.62-6.72-.48-15.24-.48-15.24-2.45-10.15,2-15.43,2-15.43s26.07,9.11,41.89,15c8.93-1.33,12.09-5.69,12.09-5.69l.23.37c.18-7.74.4-17.42.4-18.51,0-1.84,3-4.8,7.56,1s15.18,20.56,15.18,20.56l21.42-12.55,25,62s-60.5,13-69.11,13.61-40.31-8.71-49.23-16.09-7-14-7-14C2136.78,1387.91,2143.4,1380.8,2143.4,1380.8Z"/><path class="cls-3" d="M2161.87,1375.54a1,1,0,0,0,.32-2c-7.64-2.48-18.64-8.78-18.75-8.85a1,1,0,1,0-1,1.8c.46.26,11.3,6.48,19.15,9A1.25,1.25,0,0,0,2161.87,1375.54Z"/><path class="cls-3" d="M2161.87,1388.69a1,1,0,0,0,.19-2.06,64.46,64.46,0,0,1-18.13-6.73,1,1,0,1,0-1,1.79,65,65,0,0,0,18.8,7Z"/><path class="cls-3" d="M2159.55,1403.68a1,1,0,0,0,.22-2A55.68,55.68,0,0,1,2144,1395a1,1,0,1,0-1.13,1.74,56.3,56.3,0,0,0,16.5,6.89Z"/><path class="cls-14" d="M1815.41,955.12s-17.33,3.85-24.1,11.32c-30.33,33.51-95.06,194.29-106.69,225.25,0,0,40.12,53.7,84.89,56.69s61.42-222.72,61.42-222.72Z"/><path class="cls-18" d="M597.37,1496.09H262a408.92,408.92,0,0,1,5.76-57.77v0c.25-1.47.51-3,.8-4.43,7-38.07,19.59-75.82,38.65-107.94,12.16-20.46,30.13-32.29,51.48-37.89,1.28-.34,2.57-.65,3.87-1h0c26.51-5.93,57.82-2.84,89.52,4.9h0q5.93,1.44,11.84,3.1h0c27.18,7.57,54.22,18.14,78.36,29,1.11.5,2.21,1,3.29,1.5,9.72,4.41,18.93,8.85,27.45,13.12l4.57,2.31c5.28,2.69,10.28,5.31,14.92,7.79l2,1a.87.87,0,0,0,.19.1c-.06,0-.11.12-.16.17-.55.63-1.09,1.24-1.61,1.85l-12.69,14.45,1.57,8.91,1.83,10.34.59,3.48,1.46,8.79,2.05,12.12.36,2.2.21,1.23,1.35,8,5.14,40.57Z"/><path class="cls-18" d="M623.49,1255.2l198.91-28.76s28,86.76,22.2,135c0,0-184.81,49.89-223.57,45S542.75,1346,542.75,1346s-6.15-289.13-.35-284.65S623.49,1255.2,623.49,1255.2Z"/><path class="cls-18" d="M628.1,1339.32s-10.82,8.54-30.61,23.86l-1.34,1c-.62.49-1.28,1-1.93,1.5q-5.76,4.44-12.43,9.57c-.9.71-1.83,1.43-2.77,2.15q-2.13,1.62-4.33,3.33l-.31.22q-11.05,8.51-24.16,18.49-16.68,12.72-36.42,27.64h0l-2.59,2c-1.36,1-2.7,2-4,3.09h0a774.12,774.12,0,0,0-72.68,63.93H370c-2.95-11.27-5.19-19.8-5.2-19.8-13.83.8-55.14-.49-96.46-37.48l-.11-.11-.46-.42A191.5,191.5,0,0,1,245,1413.74c-34.7-44.49-49.16-137.49-54.25-234.51-.46-8.57-.82-17.16-1.14-25.76,0,0,.44-11,2.19-27.44v0c5-47,20.73-138.37,67.59-144.86,12.24-1.68,30.5-3.23,50.07-4.55,5.07-.34,10.24-.67,15.42-1h0c28.82-1.75,57.78-3,72.59-3.61,6.34-.26,10.08-.39,10.08-.39s14.25,3.74,9.71,1.63a237.43,237.43,0,0,1,23.38,5.33l.44.13c44.31,12.65,70.69,35.46,86.25,56.45l0,0a1,1,0,0,1,.15.21,131,131,0,0,1,12.94,21.53l0,.08c.78,1.58,1.47,3.11,2.1,4.6h0c5.2,12.21,6.46,20.58,6.46,20.58l41.93,183,.38.71,16.77,32.27c0,.06.06.13.1.19C618,1317.08,628.1,1339.32,628.1,1339.32Z"/><path class="cls-18" d="M328.79,968.21s-71.65-2.5-105.86,16.87c-51.05,28.92-32.86,194.55-32.86,194.55s43.38-23.66,46-31.55S328.79,968.21,328.79,968.21Z"/><path class="cls-8" d="M310.42,1463.31a134.91,134.91,0,0,0,13,4.18c24.14,6.4,41,3.74,41.7,3.62a2,2,0,1,0-.64-3.89c-.16,0-16.89,2.64-40.26-3.6-21.55-5.75-53.35-20.44-82.43-57.74-36.51-46.82-49.85-191-50.17-300.18a2,2,0,1,0-3.94,0c.32,109.83,13.88,255,51,302.6C263.11,1439.63,289.48,1455.39,310.42,1463.31Z"/><path class="cls-8" d="M369.52,1046.13c1.52.16,3.08.3,4.66.41a1.65,1.65,0,0,0,1.75-1.52,1.63,1.63,0,0,0-1.52-1.75c-67.91-4.77-80.52-54.48-80.61-55a1.67,1.67,0,0,0-1.89-1.33,1.62,1.62,0,0,0-1.35,1.83C290.63,989.3,303.16,1039.27,369.52,1046.13Z"/><path class="cls-8" d="M364.76,1296.74C352.55,1243.5,331,1150.4,321.51,1085.1a2,2,0,0,0-3.9.62c11.15,70.1,34.36,173.23,43.29,212.09Z"/><path class="cls-2" d="M391.93,812.42l12.47,80.91s5.35,27.17-18,34.28l10.09,35.8a28.81,28.81,0,0,1-14.75,33.67,75.53,75.53,0,0,1-22.06,7c-27.34,4.22-45.32-14-49.18-23.92s-4.57-60-4.57-60l-4.55-23.95-11.26-93.77Z"/><path class="cls-5" d="M332.14,863.05a1.15,1.15,0,0,1-.84-.2,1.14,1.14,0,0,1-.28-1.6c.13-.19,13.33-18.64,29.43-9.3a1.15,1.15,0,1,1-1.16,2c-14.26-8.27-25.9,7.94-26.39,8.63A1.11,1.11,0,0,1,332.14,863.05Z"/><path class="cls-5" d="M378.06,849a1.15,1.15,0,0,1-1.06-1.88c.4-.47,9.84-11.44,17.62-6.61a1.15,1.15,0,0,1-1.22,2c-6.1-3.79-14.56,6-14.64,6.14A1.15,1.15,0,0,1,378.06,849Z"/><path d="M355.89,864.11a3.46,3.46,0,1,1-3.95-2.9A3.46,3.46,0,0,1,355.89,864.11Z"/><path d="M391.7,855.09a3.46,3.46,0,1,1-3.95-2.9A3.46,3.46,0,0,1,391.7,855.09Z"/><path class="cls-5" d="M294,806.46l23.24,24.07s61.25,13.54,86.78-17.61,14.45-42.53,3.71-54.5c-5.29-5.9-27.79-16.11-51.14-1.11-12.75,8.18-25.66-8.39-40.21,3.19s-30.93,30.26-27.86,36.18S294,806.46,294,806.46Z"/><path class="cls-5" d="M293.35,794.89s-26.51,2.79-30,29.24,8.48,38.19,9.9,45.7,4.14,59.2,39.29,49.9l-3.31-85.56-17.6-31.56Z"/><circle class="cls-2" cx="306.96" cy="870.43" r="20.75" transform="translate(-537.11 497.04) rotate(-46.71)"/><path class="cls-3" d="M307.38,883.23a8.64,8.64,0,0,1-9-5.16,8.12,8.12,0,0,1,1.79-9.87A9.74,9.74,0,0,1,311,866.92a9.3,9.3,0,0,0-4.92-4.41c-4.38-1.61-9.15.79-9.19.81a.58.58,0,0,1-.78-.25.59.59,0,0,1,.25-.78c.21-.1,5.24-2.64,10.11-.87,2.8,1,4.95,3.26,6.38,6.67l.8,1.9L312,868.77c-.24-.17-5.84-4.16-11.06.31a7,7,0,0,0-1.5,8.5,7.45,7.45,0,0,0,7.81,4.52l.12,0a.57.57,0,0,1,.18,1.13Z"/><path class="cls-3" d="M327.29,912.92S336,958.45,393.79,954l-7.44-26.4S350.42,940.77,327.29,912.92Z"/><path class="cls-5" d="M406.38,879.84s15.9,53.65-20.18,61.2c-51.63,10.81-61.25-18.13-68.09-42L309.85,849l-.57-14.82h0A26.32,26.32,0,0,1,318,848.09c2.93,11.87,10.59,43.87,13.82,44.85C336.37,894.31,397.47,875.82,406.38,879.84Z"/><path class="cls-3" d="M371.5,885.31a.58.58,0,0,1-.35-1.09L382,878.69l-7.75-26.33a.58.58,0,0,1,1.11-.32l8,27.24-11.69,6Z"/><path class="cls-4" d="M364.37,897.77c.34-.13,22.47-4.07,22.47-4.07s-1.38,9.62-9.6,11.1S364.37,897.77,364.37,897.77Z"/><path class="cls-17" d="M778.65,944.58c19.89,33.36,12.6,193.39,12.6,193.39l-11.58-.74c-.33-3.93-2.23-15.25-2.23-15.25L773,1136.8l-45-2.89L710.14,910.49S758.76,911.22,778.65,944.58Z"/><path class="cls-2" d="M755.73,963.66s29.73,89.2-18.39,104.51l2.46,63.53-68.37-12.32L662.4,915s20.21,1.59,20.29,3.25S755.73,963.66,755.73,963.66Z"/><path class="cls-3" d="M736.17,1025.14a.63.63,0,0,1-.18-1.23c4-1,6.25-6,6.9-7.69-5.8-2.78-9.43-6.56-10.8-11.25-2.22-7.65,2.37-14.86,2.57-15.16a.62.62,0,1,1,1,.67c0,.07-4.48,7-2.41,14.15,1.3,4.47,4.88,8.07,10.65,10.71l.5.23-.17.53c-.11.31-2.61,7.62-8,9Z"/><path class="cls-3" d="M738.19,1087.56l-.85-19.39s-32.87-.48-53.55-12.27C683.79,1055.9,712.25,1080.94,738.19,1087.56Z"/><path class="cls-4" d="M709.2,1024.7c.38.08,23,8.7,23,8.7s-6.6,8.11-15,4.93S709.2,1024.7,709.2,1024.7Z"/><path class="cls-17" d="M731.29,931.23s-7.23,42.49-46.13,60.7-13.65,70.31-13.65,70.31L631.2,1007.4s-2.12-76,31.2-92.44C686.64,903,734.24,907.13,731.29,931.23Z"/><path class="cls-17" d="M704.63,987.14a1.22,1.22,0,0,0,1.14-.11c.08,0,8.75-5.64,17.71-2.95a1.23,1.23,0,1,0,.71-2.36c-10.08-3-19.39,3-19.78,3.25a1.25,1.25,0,0,0-.35,1.71A1.22,1.22,0,0,0,704.63,987.14Z"/><path class="cls-17" d="M757.76,989.57a1.24,1.24,0,0,0,1.06-.45,1.23,1.23,0,0,0-.17-1.73c-.36-.3-9-7.27-19.32-5.33a1.21,1.21,0,0,0-1,1.43,1.23,1.23,0,0,0,1.43,1c9.23-1.73,17.23,4.74,17.31,4.81A1.17,1.17,0,0,0,757.76,989.57Z"/><polygon class="cls-2" points="729.13 947.59 711.69 932.5 724.95 950.35 729.13 947.59"/><path class="cls-17" d="M618.68,964.1C626.3,920.79,673.43,911,673.43,911L675,995s-3,78.32,3.41,132.59l1.57,10.22a303.12,303.12,0,0,1-36.87-3.46c-1.73-8-4.61-20.9-4.61-20.9l-4.43,19.29c-4.37-.87-8.76-1.89-13-3.09C621.07,1129.67,612.48,999.3,618.68,964.1Z"/><circle class="cls-2" cx="662.4" cy="1010.56" r="19.38" transform="translate(-367.03 377.89) rotate(-25.18)"/><path class="cls-3" d="M661.49,1022.57a8.16,8.16,0,0,1-7.94-5.76,7.66,7.66,0,0,1,2.7-9.08,9.15,9.15,0,0,1,10-.22,8.59,8.59,0,0,0-4-4.32c-3.88-1.92-8.5-.19-8.54-.17a.62.62,0,0,1-.8-.36.61.61,0,0,1,.35-.8c.21-.08,5.17-1.94,9.54.21,2.52,1.25,4.3,3.56,5.29,6.89l.64,2.13-1.65-1.5c-.2-.18-5-4.41-10.19-.83a6.5,6.5,0,0,0-2.23,7.65,6.88,6.88,0,0,0,6.81,4.92.62.62,0,0,1,.66.58.62.62,0,0,1-.58.66Z"/><path class="cls-19" d="M686.33,1361.38a1.3,1.3,0,0,0,1.15-.66,1.47,1.47,0,0,0-.41-2l-31.93-21.65a1.32,1.32,0,0,0-1.87.44,1.48,1.48,0,0,0,.41,2l31.93,21.65Z"/><path class="cls-2" d="M959.4,1496.09H783.31c-4.49-6.84-7.59-11.73-8.93-13.85l-.73-1.16,25.68-21.25,4-3.27,1.94-2.24L818,1439.7s0,0,0,0l16.56-19a0,0,0,0,1,0,0l16-18.29L880,1356.5l.46.81.3.52Z"/><path class="cls-20" d="M805.41,1304s1,1.29,9.29-20.34-12.41-28.31-12.41-28.31S794.58,1299.94,805.41,1304Z"/><path class="cls-2" d="M705.86,1257s93.18,80.85,123.31,91.39,283.7-84.87,283.7-84.87l-9.74-84.7-236.79,49.91L770,1153.82Z"/><path class="cls-3" d="M842.87,1276a3.18,3.18,0,0,0,1.18-1.18l25.41-44.17a3.21,3.21,0,1,0-5.57-3.21l-25.42,44.17a3.22,3.22,0,0,0,1.19,4.39A3.18,3.18,0,0,0,842.87,1276Z"/><path class="cls-21" d="M769,1148.77l87.86,69.72s-80.36,115.19-70.67,119.41l-111.35-80.29Z"/><path class="cls-8" d="M855.22,1219.15a1.33,1.33,0,0,0,1.57-2.14l-85.36-67.59a1.32,1.32,0,1,0-1.64,2.08l85.35,67.59Z"/><path class="cls-8" d="M785.43,1339a1.31,1.31,0,0,0,1.8-.3,1.34,1.34,0,0,0-.26-1.86c-.43-.61-1.5-5.73,22.39-44.35,12.63-20.4,26.06-40.18,26.19-40.37a1.32,1.32,0,0,0-.35-1.85h0a1.33,1.33,0,0,0-1.84.35c-.14.21-14,20.59-26.8,41.35-26.53,43-22.92,45.7-21.19,47Z"/><path class="cls-2" d="M1160.1,1174.45l2-1.92c5.79-.09,17.39-1,31-1.35,1,11.44,2,20.25,3.43,20.33l-.11,2.52a2.33,2.33,0,0,0,.62,1.68c-.37,11.7-1.19,26.55-1.07,39,.09,8.86,3.08,16.37-3.84,21.39-4,2.91-25.92,4.32-33.75,4.24l-52.2,4.11c.39-15.51-5.59-83.33-3-85.69Z"/><path class="cls-11" d="M1124.86,1114.88l7.13-59.42,94.39,11.31-7.13,59.43c-2.88,24-24,41.45-48.16,40.82l-12.38,98.38,36.33,19.35-85.3-10.22,39.88-10.22,12.39-98.38C1138.34,1160.82,1122,1138.87,1124.86,1114.88Z"/><path class="cls-12" d="M1216.8,1117.45c0,.53-.4,5.92-.47,6.45a44.36,44.36,0,0,1-49.32,38.77c-24.33-2.92-39.67-19.73-39.11-44.42a11.73,11.73,0,0,1,.23-1.56Z"/><path class="cls-13" d="M1128.15,1116.64c0,1.46,19.82,2.82,44.3,3s44.33-.78,44.35-2.24-19.82-2.82-44.3-3S1128.17,1115.18,1128.15,1116.64Z"/><path class="cls-2" d="M1205.38,1200.52c.55,6.46-3.37,10.1-4.44,10.22l-33.11,3.87c-4,.47-7.88-3.28-8.62-8.75-.81-6,2.23-11.41,6.56-11.92l33-3.85S1204.83,1194.06,1205.38,1200.52Z"/><path class="cls-2" d="M1207.22,1219c.64,6.44-2,11.86-3.09,12l-35.61,5.11c-4,.58-7.91-3.07-8.73-8.53-.89-6,2.07-11.47,6.38-12.09l36.52-5.24S1206.58,1212.58,1207.22,1219Z"/><path class="cls-2" d="M1205.85,1239.89c.64,6-1.8,11.09-2.79,11.25l-33.11,5.29c-3.72.59-7.39-2.75-8.2-7.82-.87-5.55,1.84-10.72,5.85-11.36l34-5.43S1205.2,1233.89,1205.85,1239.89Z"/><path class="cls-3" d="M1204,1212.14a2,2,0,0,0,1-2c-.1-1.08-.81-1.87-1.6-1.77l-35.65,4.34c-3.35.39-6.44-2.73-7-7.1a10.58,10.58,0,0,1,1.09-6.5,5.66,5.66,0,0,1,4.23-3.18l32.63-3.81a1.82,1.82,0,0,0,1.24-2.11c-.09-1.08-.8-1.88-1.58-1.79l-32.64,3.82a8.4,8.4,0,0,0-6.18,4.65,15.52,15.52,0,0,0-1.6,9.5c.87,6.4,5.34,11,10.19,10.41l35.65-4.34A1,1,0,0,0,1204,1212.14Z"/><path class="cls-2" d="M1201.14,1178.34c.74,6.44-2.09,11.84-3.15,12l-35.6,4.77c-3.91.52-7.79-3-8.68-8.29-1-6.1,2-11.76,6.39-12.35l33.21-4.44C1197,1169.51,1200.71,1174.6,1201.14,1178.34Z"/><path class="cls-3" d="M1198.43,1192a2,2,0,0,0,.93-2c-.11-1.08-.83-1.86-1.61-1.75l-35.59,4.94c-3.35.45-6.47-2.62-7.1-7a10.64,10.64,0,0,1,1-6.52,5.71,5.71,0,0,1,4.2-3.25l32.58-4.37a1.84,1.84,0,0,0,1.23-2.13c-.1-1.07-.82-1.86-1.6-1.75l-32.59,4.36a8.52,8.52,0,0,0-6.14,4.75,15.6,15.6,0,0,0-1.51,9.54c.92,6.39,5.43,10.89,10.27,10.24l35.6-4.94A1.32,1.32,0,0,0,1198.43,1192Z"/><path class="cls-3" d="M1203.35,1232a2,2,0,0,0,.93-2.09c-.12-1.07-.84-1.84-1.62-1.71l-34.63,5.64c-3.37.48-6.19-2.2-6.84-6.54a10.7,10.7,0,0,1,1-6.53,5.79,5.79,0,0,1,4.18-3.29l36.51-5.24c.78-.1,1.33-1.07,1.22-2.14s-.83-1.86-1.61-1.74l-36.51,5.24a8.52,8.52,0,0,0-6.12,4.81,15.64,15.64,0,0,0-1.46,9.55c.95,6.36,5.17,10.46,10,9.76l34.65-5.64A1.29,1.29,0,0,0,1203.35,1232Z"/><path class="cls-3" d="M1203.11,1251.7a2,2,0,0,0,.94-2.09c-.12-1.07-.85-1.84-1.62-1.72l-33.11,5.3c-3.07.49-6-2.25-6.59-6.23a9.76,9.76,0,0,1,.86-6,5.35,5.35,0,0,1,3.8-3.08l33.95-5.43a1.86,1.86,0,0,0,1.2-2.16c-.12-1.07-.85-1.84-1.62-1.71l-34,5.42a8.14,8.14,0,0,0-5.72,4.64,14.72,14.72,0,0,0-1.3,9c1,6,5.26,10.14,9.8,9.41l33.11-5.3A1.11,1.11,0,0,0,1203.11,1251.7Z"/><path class="cls-2" d="M1122.6,1192.37c-1.33,6.61,1.15,12.47,2.24,12.71l36.53,8c4,.88,8.35-2.39,9.74-7.85,1.58-6.25-1.06-12.38-5.57-13.37l-34.1-7.49C1127.65,1183.56,1123.37,1188.53,1122.6,1192.37Z"/><path class="cls-3" d="M1123.42,1213a2.09,2.09,0,0,1-.79-2.21c.21-1.11,1-1.86,1.82-1.68l37.34,2c3.44.75,6.94-2.16,8-6.64a11.12,11.12,0,0,0-.51-6.86,6,6,0,0,0-4.08-3.73l-33.44-7.34a1.93,1.93,0,0,1-1.09-2.33c.2-1.1,1-1.85,1.81-1.68l33.45,7.34a8.91,8.91,0,0,1,6,5.47,16.25,16.25,0,0,1,.74,10c-1.51,6.55-6.58,10.83-11.55,9.74l-37.34-2A1.34,1.34,0,0,1,1123.42,1213Z"/><path class="cls-21" d="M891.93,1336.38s0,0-.06.11a1.25,1.25,0,0,1-.13.26c-.27.5-.53,1-.79,1.51q-5.19,9.91-10.51,19c-27.43,47.29-56.79,79.39-75.2,97-2.13,2-4.1,3.89-5.91,5.51-7.9,7.21-12.67,10.75-12.67,10.75l.92,1.53,14.6,24H570.09c.88-25.75,1.72-52.91,2.82-79,0-.45,0-.91.05-1.35,0-.11,0-.2,0-.3,0-.66,0-1.31.08-2,.48-11,1-21.82,1.61-32.23a3.55,3.55,0,0,1,0-.46c.43-7.58.91-15,1.43-22.08v0c.46-6.11,1-12,1.5-17.68,1.23-13,2.68-24.6,4.42-34.36q.75-4.14,1.55-7.81c.11-.45.21-.91.31-1.37.3-1.33.6-2.64.9-4h0c.29-1.31.59-2.62.89-3.92h0q2.82-12.27,5.73-23.63c4.94-19.4,10.06-36.86,15.32-52.53v0q2.41-7.21,4.88-13.92l.64-1.74c.13-.36.27-.73.42-1.09q1.94-5.27,4-10.21a312.44,312.44,0,0,1,15.75-33.75,190,190,0,0,1,11.26-18.21c8.86-12.6,18-21.62,27.24-27.5a60.11,60.11,0,0,1,5.4-3.06,50.6,50.6,0,0,1,33.86-4.4c4.69,1,10,3.6,15.67,7.59a126.06,126.06,0,0,1,13.46,11.07c5.46,5.08,11.19,11,17.06,17.59,3.9,4.37,7.88,9,11.89,13.92,2,2.44,4,4.91,6,7.46h0c21.43,27,43.79,59.76,63.17,89.83,2.75,4.23,5.42,8.43,8,12.54l3.88,6.15c6.53,10.39,12.56,20.17,17.9,29,.53.87,1.06,1.74,1.57,2.6h0C883,1320.61,891.93,1336.38,891.93,1336.38Z"/><path class="cls-19" d="M760,1491.86l1.16-.72c83.89-52.51,130.33-153.75,130.78-154.76l.31-.69-.35-.65c-4.71-8.64-116.33-210.74-175.78-234.38-61.66-24.53-101.64,80.86-100.72,83.78.23.75.07,1.57.76,1.86a1.33,1.33,0,0,0,1.76-.81c.39-1,39.18-104.21,97.28-82.12,57.21,21.74,166.78,219.36,174,232.45-4.18,8.89-49.4,102.13-128.25,152.11l-94.7-168.15a1.32,1.32,0,0,0-1.86-.5,1.51,1.51,0,0,0-.47,2Z"/><path class="cls-19" d="M756.82,1454.22a1.32,1.32,0,0,0,.89-.34c65.2-58.47,111-156.42,111.43-157.4a1.47,1.47,0,0,0-.62-1.93,1.33,1.33,0,0,0-1.81.66c-.45,1-46,98.4-110.75,156.47a1.51,1.51,0,0,0-.16,2A1.35,1.35,0,0,0,756.82,1454.22Z"/><path class="cls-5" d="M710.74,1003.31a.86.86,0,0,0,.3-.09c3.83-2.06,10.67-1.87,10.74-1.86l2.17.07-1.7-1.35c-7.18-5.69-14-2.31-14.23-2.16a.72.72,0,0,0,.65,1.28,11.75,11.75,0,0,1,10.86.75c-2.45.11-6.44.54-9.17,2a.71.71,0,0,0-.29,1A.73.73,0,0,0,710.74,1003.31Z"/><path class="cls-5" d="M754.31,1003.51a.75.75,0,0,1-.3-.09c-3.79-2.13-10.64-2.06-10.71-2.06l-2.17,0,1.73-1.31c7.27-5.56,14-2.06,14.26-1.91a.72.72,0,0,1-.68,1.26,11.77,11.77,0,0,0-10.87.57c2.45.15,6.43.65,9.14,2.17a.71.71,0,0,1,.27,1A.72.72,0,0,1,754.31,1003.51Z"/><path class="cls-6" d="M672.5,1231.92c-10.48-6.55-31.15-59.58-31.15-59.58l-10.5-23,3.39-1.15-1.57-4.62-17.45,5.92-17.46,5.92,1.57,4.62,3.4-1.15,5.69,24.69s15.86,54.65,11.53,66.23-1.47,24-1.47,24l40.38,119c3.7,6.86,11.68,4.84,11.68,4.84l25.9-8.79,25.9-8.78s7.56-3.26,6.33-11l-40.38-119S683,1238.48,672.5,1231.92Z"/><rect class="cls-7" x="632.59" y="1266.44" width="73.72" height="85.7" transform="translate(-385.16 284.49) rotate(-18.74)"/><path class="cls-8" d="M622.07,1153.2l-23.29,7.9-1.85-5.46a.88.88,0,0,1,1.67-.56l1.28,3.79,21.62-7.34a.88.88,0,1,1,.57,1.67Z"/><path class="cls-8" d="M657.61,1389.46h0a.88.88,0,0,1-1.11-.56l-36.54-108a43.43,43.43,0,0,1-3-22.11c.44-3.28.9-6,1.31-8.34,1.06-6.12,1.75-10.17.67-16.94-1.21-7.57-6-29.45-8-36.57s-9-37.58-9.07-37.89a.88.88,0,1,1,1.71-.39c.07.3,7,30.61,9,37.8s6.81,29,8.06,36.77c1.13,7.06.41,11.22-.68,17.52-.4,2.36-.86,5-1.3,8.28a42.31,42.31,0,0,0,2.86,21.17l0,.09,36.55,108.08A.87.87,0,0,1,657.61,1389.46Z"/><g class="cls-9"><circle class="cls-10" cx="668.22" cy="1309.71" r="26.83" transform="translate(-110.93 62.8) rotate(-4.97)"/></g><path class="cls-8" d="M626.16,1262.32a.84.84,0,0,1-.52,0,.88.88,0,0,1-.61-1.09l3.57-12.76a.88.88,0,0,1,1.69.47l-3.57,12.77A.87.87,0,0,1,626.16,1262.32Z"/><path class="cls-8" d="M630.57,1268.05a.88.88,0,0,1-.51,0,.87.87,0,0,1-.61-1.08l3.56-12.77a.88.88,0,1,1,1.7.48l-3.57,12.76A.88.88,0,0,1,630.57,1268.05Z"/><path class="cls-2" d="M709.8,1290c3.84-11.61-8.2-18-8.2-18-3-13.21-11.25-16.77-11.25-16.77s-25.05,25.57-40.07,41.48c-11.15,3.58-17.32.32-17.32.32l-.06.57c-4.65-8.89-10.47-20-11.1-21.28-1.06-2.15-6.19-3.89-8.19,5.56a95.33,95.33,0,0,1-6.09,18.16L568.65,1310l13.64,88.7s77.78-19.65,88.15-23.89,41.84-33.28,48-47,.08-20.28.08-20.28C721.59,1294.5,709.8,1290,709.8,1290Z"/><path class="cls-3" d="M685.31,1294.54a1.34,1.34,0,0,1-1.53-2.17c7.46-7.27,16.61-20.92,16.7-21.06a1.35,1.35,0,1,1,2.24,1.5c-.38.56-9.4,14-17.07,21.49A1.31,1.31,0,0,1,685.31,1294.54Z"/><path class="cls-3" d="M692.87,1309.82a1.35,1.35,0,0,1-1.4-2.29,83.78,83.78,0,0,0,17.2-18.23,1.35,1.35,0,1,1,2.25,1.48,84.53,84.53,0,0,1-17.84,18.91A1.07,1.07,0,0,1,692.87,1309.82Z"/><path class="cls-3" d="M704.18,1325.91a1.33,1.33,0,0,1-1.65-.37,1.35,1.35,0,0,1,.21-1.89c8.57-6.82,14.53-16.67,14.59-16.77a1.34,1.34,0,1,1,2.3,1.39,73.36,73.36,0,0,1-15.21,17.49Z"/><path class="cls-18" d="M583.81,1288.69l8.33,40.86,5.24,45.31-1.17,31.91-2.45,4.14L554.21,1420,539,1341.72s15.51-38.59,16.48-39.26S583.81,1288.69,583.81,1288.69Z"/><polygon class="cls-18" points="594.98 1496.09 531.42 1496.09 553.78 1421.5 554.21 1420.05 572.97 1415.42 587.94 1411.71 587.98 1412.24 588 1412.5 588.08 1413.49 594.98 1496.09"/><path d="M594.74,1496.19c-3.48-45.22-6.12-73-7.84-82.49l-.27-1.51h1.31l1.25-.37,0,.22h0a1.5,1.5,0,0,1,.06.29l.17.91c1.74,9.6,4.39,37.45,7.88,82.76Z"/><path class="cls-8" d="M444.14,1444.93a1.74,1.74,0,0,1,.47-3.3c27-4.17,136.85-30.13,149.51-33.13,4.9-43.81-9.24-107.12-11.59-117.19l-214.83,6.81-30.77,6.06a1.74,1.74,0,1,1-.67-3.41l31.19-6.12,217.79-6.9.34,1.36c.17.73,17.66,72.89,11.86,121l-.15,1.2-1.18.28c-1.22.29-122.35,29-151,33.47A1.78,1.78,0,0,1,444.14,1444.93Z"/><path d="M557.28,1289c-18.6-79.6-44.45-198.72-44.71-199.92l2.55-.55c.26,1.19,26.11,120.3,44.7,199.87Z"/><path class="cls-22" d="M1249.28,435H1466a11.68,11.68,0,0,0-2.4-17.19c-10-6.8-24.36-3.77-24.36-3.77s15.77-65.94-28.81-73.88-59.26,37.41-59.26,37.41c.69-30.12-71.91-86.77-113.68-27.45-10.85,15.41-15,29-15.31,40.7A48,48,0,0,0,1249.28,435Z"/><path class="cls-22" d="M712.27,770.29H850.63a7.45,7.45,0,0,0-1.53-11c-6.37-4.35-15.56-2.41-15.56-2.41s10.07-42.11-18.4-47.18-37.84,23.89-37.84,23.89c.45-19.23-45.91-55.41-72.59-17.53-6.92,9.84-9.6,18.52-9.77,26A30.64,30.64,0,0,0,712.27,770.29Z"/><path class="cls-22" d="M628.55,549.08a14.45,14.45,0,0,0-4-11.12c-5.67-6-15.34-11-31.6-12.09,0,0,5.6-100.83-70.56-107.51C435,410.7,434,509.76,434,509.76s-39.7-37.69-68.33,10.09c0,0-49.49-28.6-74.45,24.23a8.32,8.32,0,0,0-.68,5Z"/><path class="cls-22" d="M2186.38,671.05a10.25,10.25,0,0,0-2.84-7.87c-4-4.27-10.85-7.75-22.36-8.56,0,0,4-71.36-49.94-76.08-61.82-5.43-62.57,64.68-62.57,64.68s-28.09-26.67-48.36,7.14c0,0-35-20.24-52.69,17.15a6,6,0,0,0-.48,3.54Z"/><polygon class="cls-18" points="1142.51 637.15 1156.8 643.01 1169.73 634.55 1168.58 649.95 1180.61 659.63 1165.61 663.3 1160.12 677.74 1152 664.6 1136.57 663.85 1146.56 652.06 1142.51 637.15"/><polygon class="cls-18" points="450.65 323.42 464.94 329.27 477.87 320.82 476.72 336.22 488.76 345.9 473.75 349.56 468.27 364 460.14 350.87 444.71 350.11 454.7 338.33 450.65 323.42"/><polygon class="cls-23" points="708.21 244.87 729.51 253.59 748.78 240.98 747.07 263.94 765.01 278.37 742.65 283.84 734.47 305.36 722.36 285.78 699.36 284.65 714.24 267.08 708.21 244.87"/><path class="cls-17" d="M1052.24,309.31c-3.06-14.61,6.72-22.92,13.2-28.41.64-.54,1.26-1.08,1.86-1.6,3.72-3.25,3.43-5.25.58-12.38-3-7.43-7.45-18.64,6-29.88l7.22,8.62c-7.18,6-5.61,9.94-2.76,17.08,2.58,6.46,6.48,16.21-3.62,25-.64.56-1.3,1.12-2,1.7-7,5.9-11,10-9.47,17.53Z"/><path class="cls-23" d="M523.3,761.6c14.79-2,22.36,8.38,27.37,15.24.5.68,1,1.34,1.46,2,3,3.94,5,3.8,12.31,1.48,7.62-2.41,19.13-6.06,29.35,8.15L584.67,795c-5.47-7.6-9.51-6.32-16.83-4-6.63,2.1-16.63,5.27-24.69-5.45-.52-.68-1-1.38-1.55-2.1-5.38-7.36-9.19-11.75-16.8-10.73Z"/><path class="cls-24" d="M1340.06,503.14c-5.69,13.79-18.46,15.15-26.91,16.05-.83.08-1.64.17-2.44.27-4.9.59-5.79,2.4-7.45,9.9-1.73,7.81-4.34,19.6-21.77,21.32l-1.1-11.19c9.32-.92,10.23-5,11.89-12.56,1.5-6.78,3.77-17,17.09-18.64L1312,508c9.06-1,14.78-2.05,17.7-9.15Z"/><path class="cls-25" d="M316.49,654.57c-.05-14.92-11.35-21-18.83-25l-2.16-1.18c-4.31-2.4-4.45-4.41-3.15-12,1.36-7.88,3.4-19.79-12.08-28L275,598.34c8.28,4.38,7.56,8.55,6.26,16.13-1.18,6.85-3,17.2,8.76,23.72l2.29,1.25c8,4.32,12.9,7.49,12.93,15.17Z"/><path class="cls-23" d="M2060.9,497.88c14.78-2,22.36,8.38,27.37,15.24.49.67,1,1.34,1.45,2,3,3.95,5,3.81,12.31,1.49,7.62-2.42,19.13-6.07,29.36,8.15l-9.13,6.56c-5.47-7.6-9.5-6.32-16.83-4-6.62,2.1-16.63,5.27-24.69-5.44-.51-.68-1-1.39-1.55-2.1-5.38-7.36-9.19-11.75-16.79-10.73Z"/><path class="cls-18" d="M1514.48,675.47c-6.58-13.39-19.41-13.91-27.9-14.25l-2.45-.11c-4.93-.27-5.94-2-8.08-9.4-2.24-7.67-5.62-19.27-23.12-19.85l-.37,11.24c9.36.31,10.54,4.37,12.69,11.76,1.94,6.67,4.88,16.75,18.27,17.48l2.6.12c9.11.36,14.88,1.08,18.27,8Z"/><path class="cls-25" d="M1962.32,375.47c0-14.92-11.35-21-18.83-25q-1.11-.58-2.16-1.17c-4.31-2.4-4.45-4.42-3.15-12,1.36-7.88,3.4-19.79-12.08-28l-5.26,9.94c8.28,4.37,7.56,8.55,6.26,16.13-1.18,6.84-3,17.19,8.76,23.71.74.42,1.51.83,2.29,1.25,8,4.32,12.9,7.5,12.93,15.17Z"/><path class="cls-17" d="M1399.36,157c13.06-7.23,23.88-.32,31,4.25l2.08,1.31c4.2,2.6,6,1.73,12-3.09,6.22-5,15.62-12.61,30.31-3.08l-6.11,9.43c-7.86-5.09-11.15-2.43-17.14,2.4-5.4,4.36-13.57,11-25,3.9-.72-.44-1.46-.91-2.21-1.39-7.68-4.9-12.82-7.61-19.54-3.89Z"/><path class="cls-26" d="M1572,327.27c12.46,8.21,11.36,21,10.63,29.47-.07.83-.14,1.65-.2,2.45-.35,4.92,1.26,6.14,8.31,9.19,7.34,3.19,18.42,8,16.79,25.43l-11.19-1c.87-9.32-3-11-10.07-14.07-6.38-2.76-16-6.94-15-20.32.06-.85.13-1.72.21-2.6.78-9.08.79-14.9-5.62-19.12Z"/><path class="cls-26" d="M2041.23,246.75c9.85-11.2,22.37-8.34,30.65-6.45l2.4.54c4.83,1,6.25-.4,10.26-7,4.17-6.82,10.46-17.13,27.51-13.11l-2.59,10.95c-9.11-2.15-11.32,1.46-15.32,8-3.62,5.93-9.1,14.9-22.21,12.09-.83-.17-1.68-.37-2.55-.56-8.88-2-14.64-2.85-19.71,2.91Z"/><path class="cls-26" d="M736.6,520.82c12.46,8.21,11.36,21,10.63,29.47-.07.83-.14,1.65-.2,2.45-.35,4.92,1.26,6.13,8.31,9.19,7.33,3.18,18.42,8,16.79,25.43l-11.2-1c.87-9.33-3-11-10.06-14.07-6.38-2.77-16-7-15-20.32.06-.85.13-1.72.21-2.6.78-9.08.79-14.9-5.62-19.12Z"/><path class="cls-24" d="M1836.53,130.44c-15.25-2.41-23.33,8.13-28.68,15.11l-1.56,2c-3.16,4-5.24,3.81-12.76,1.23-7.83-2.68-19.65-6.74-30.57,7.72l9.28,7c5.84-7.74,10-6.31,17.51-3.73,6.8,2.33,17.08,5.86,25.68-5l1.65-2.13c5.74-7.48,9.79-11.94,17.63-10.7Z"/><path class="cls-17" d="M2037,720.58c13-7.22,23.87-.32,31,4.25l2.08,1.31c4.2,2.6,6,1.74,12-3.09,6.22-5,15.62-12.61,30.32-3.08l-6.12,9.43c-7.86-5.09-11.15-2.43-17.13,2.4-5.41,4.36-13.58,11-25,3.91l-2.2-1.4c-7.69-4.9-12.83-7.61-19.55-3.89Z"/><path class="cls-24" d="M2474.17,694c-15.25-2.41-23.33,8.13-28.68,15.11-.53.69-1,1.36-1.56,2-3.16,4-5.24,3.81-12.76,1.23-7.83-2.68-19.65-6.74-30.57,7.73l9.28,7c5.84-7.73,10-6.31,17.51-3.73,6.8,2.33,17.08,5.86,25.68-5,.54-.69,1.09-1.41,1.65-2.14,5.74-7.48,9.79-11.93,17.63-10.69Z"/><path d="M1717,1453.51l-2.59-.34c11.22-85.87,65.39-377.12,65.94-380.05l2.57.48C1782.38,1076.53,1728.23,1367.71,1717,1453.51Z"/><path d="M2026,1435.09h-.1a1.67,1.67,0,0,1-1.57-1.76c2.59-47.43,12.73-231.78,12.83-233.45a1.65,1.65,0,0,1,1.77-1.57,1.67,1.67,0,0,1,1.56,1.77c-.1,1.67-10.23,186-12.83,233.43A1.67,1.67,0,0,1,2026,1435.09Z"/></g></g></svg>